<?xml version="1.0" standalone="no"?>
<!DOCTYPE svg PUBLIC "-//W3C//DTD SVG 20010904//EN"
 "http://www.w3.org/TR/2001/REC-SVG-20010904/DTD/svg10.dtd">
<svg version="1.0" xmlns="http://www.w3.org/2000/svg"
 width="512.000000pt" height="512.000000pt" viewBox="0 0 512.000000 512.000000"
 preserveAspectRatio="xMidYMid meet" >

<g transform="translate(0.000000,512.000000) scale(0.100000,-0.100000)"
fill="#000000" stroke="none" >
<path d="M1961 4703 c-7 -15 -71 -246 -71 -259 0 -2 -60 -4 -134 -4 l-133 0 5
48 c3 33 0 51 -9 59 -18 14 -215 57 -227 49 -15 -9 -85 -204 -79 -220 3 -8 24
-24 47 -36 22 -11 40 -23 40 -26 0 -3 -30 -56 -66 -118 l-65 -114 -107 30
c-149 41 -180 45 -188 24 -4 -10 9 -78 29 -151 l35 -134 -81 -47 c-89 -51 -99
-61 -91 -86 4 -13 -5 -19 -38 -28 -163 -43 -155 -34 -127 -144 l22 -87 -22
-15 c-19 -14 -21 -24 -21 -114 l0 -99 -42 -11 c-226 -59 -238 -63 -238 -87 0
-10 43 -61 95 -113 52 -52 95 -99 95 -105 0 -9 -112 -207 -126 -224 -1 -1 -18
9 -37 23 -19 14 -41 26 -50 26 -15 0 -167 -157 -167 -172 0 -11 123 -159 143
-172 13 -9 27 -6 62 13 25 13 47 22 49 20 12 -14 126 -217 126 -225 0 -5 -43
-52 -95 -104 -52 -52 -95 -103 -95 -113 0 -22 16 -28 163 -68 l117 -31 0 -99
c0 -90 2 -99 22 -113 l22 -16 -22 -86 c-27 -99 -24 -106 46 -123 119 -30 123
-31 118 -49 -8 -26 2 -35 92 -87 55 -31 81 -52 78 -61 -21 -55 -67 -256 -62
-270 8 -21 39 -17 188 25 l107 29 47 -81 c25 -45 55 -97 66 -114 l19 -33 -45
-22 c-33 -15 -46 -28 -46 -42 0 -36 58 -200 73 -210 14 -9 207 17 228 30 5 3
9 30 9 60 l0 54 134 0 134 0 21 -83 c42 -159 55 -192 76 -195 14 -2 49 26 115
93 52 52 99 95 105 95 6 0 46 -21 89 -46 70 -41 81 -45 104 -34 24 10 30 7 86
-49 34 -34 68 -61 76 -61 8 0 42 27 76 61 56 56 62 59 86 49 23 -11 34 -7 105
34 44 25 84 46 89 46 5 0 52 -43 104 -95 66 -67 101 -95 115 -93 21 3 34 36
76 196 l21 82 133 0 132 0 -5 -48 c-3 -33 0 -51 9 -59 18 -14 215 -57 227 -49
15 9 85 204 79 220 -3 8 -24 24 -47 36 -22 11 -40 23 -40 26 0 19 135 234 145
230 36 -14 238 -66 255 -66 11 0 23 7 27 16 3 8 -10 76 -30 149 l-35 134 81
47 c89 51 99 61 91 86 -4 13 5 19 38 28 163 43 155 34 127 144 l-22 87 22 15
c19 14 21 24 21 114 l0 99 42 11 c226 59 238 63 238 87 0 10 -43 61 -95 113
-52 52 -95 99 -95 105 0 9 112 207 126 224 1 1 18 -9 37 -23 19 -14 41 -26 50
-26 15 0 167 157 167 172 0 11 -123 159 -143 172 -13 9 -27 6 -62 -13 -25 -13
-47 -22 -49 -20 -12 14 -126 217 -126 225 0 5 43 52 95 104 52 52 95 103 95
113 0 22 -16 28 -162 68 l-118 31 0 99 c0 90 -2 99 -22 113 l-22 16 22 86 c16
61 20 89 13 98 -6 7 -49 23 -96 36 -70 18 -85 25 -81 39 8 24 -2 34 -92 86
-55 31 -81 52 -78 61 20 53 68 255 63 268 -4 9 -16 16 -27 16 -17 0 -219 -52
-255 -67 -8 -2 -32 30 -60 79 -26 46 -56 98 -67 115 l-19 33 45 22 c33 15 46
28 46 42 0 36 -58 200 -73 210 -14 9 -207 -17 -228 -30 -5 -3 -9 -30 -9 -60
l0 -54 -134 0 -134 0 -21 83 c-41 154 -55 192 -75 195 -13 3 -49 -27 -118 -95
l-99 -98 -37 20 c-20 12 -61 34 -89 50 -47 27 -55 28 -74 17 -20 -13 -26 -9
-83 47 -34 34 -68 61 -76 61 -8 0 -42 -27 -76 -61 -57 -56 -63 -60 -83 -47
-19 11 -27 10 -74 -17 -28 -16 -69 -38 -89 -50 l-37 -20 -98 98 c-99 97 -124
112 -142 80z m652 -111 l47 -48 -50 -49 -50 -49 -50 49 -50 49 47 48 c26 26
50 48 53 48 3 0 27 -22 53 -48z m-473 -102 c0 -3 -19 -15 -42 -28 -46 -24
-138 -31 -138 -11 0 6 10 49 22 95 l22 84 68 -67 c37 -37 68 -70 68 -73z
m1019 -32 c2 -38 -119 -18 -178 29 -3 2 26 35 65 74 l69 70 22 -78 c12 -43 22
-86 22 -95z m-1636 51 c32 -9 37 -14 37 -39 0 -27 -3 -29 -42 -32 -35 -2 -46
-9 -63 -34 -20 -30 -23 -31 -48 -17 -32 16 -31 11 -11 59 9 22 20 49 25 62 9
24 9 24 102 1z m604 -207 c-125 -125 -227 -231 -227 -236 0 -5 21 -45 46 -88
26 -43 45 -81 42 -83 -8 -8 -168 41 -166 51 2 5 28 103 58 217 l55 207 65 0
c63 0 69 2 200 79 74 44 139 80 145 80 5 1 -93 -101 -218 -227z m789 148 c136
-79 140 -80 206 -80 48 0 68 -4 68 -13 0 -7 25 -104 55 -216 31 -112 55 -204
53 -206 -9 -6 -162 -44 -166 -40 -2 2 16 40 42 83 25 43 46 83 46 88 0 5 -102
111 -227 236 -125 126 -225 228 -221 228 3 0 68 -36 144 -80z m807 7 c20 -60
17 -70 -18 -80 -15 -5 -25 2 -40 26 -16 25 -28 33 -57 35 -31 3 -36 7 -40 33
-4 24 -1 30 16 34 12 2 30 6 41 9 11 2 33 3 49 3 27 -2 31 -8 49 -60z m-1163
-87 c8 0 44 29 80 65 l65 65 120 -120 c65 -65 117 -121 115 -123 -3 -2 -48
-15 -100 -28 l-95 -25 -3 -102 c-1 -56 -6 -102 -10 -102 -4 0 -41 34 -82 75
-41 41 -81 75 -90 75 -9 0 -49 -34 -90 -75 -41 -41 -78 -75 -82 -75 -4 0 -9
46 -10 102 l-3 102 -95 25 c-52 13 -97 26 -100 28 -2 2 50 58 115 123 l120
120 65 -65 c36 -36 72 -65 80 -65z m-1010 -30 c0 -28 -1 -29 -25 -18 -37 16
-32 48 7 48 13 0 18 -8 18 -30z m320 28 c0 -11 -70 -251 -74 -255 -3 -3 -37
13 -76 36 -108 62 -112 59 -120 -70 l-5 -85 -125 33 c-68 19 -126 36 -128 38
-6 5 105 202 118 210 5 3 29 -5 53 -19 74 -44 97 -34 97 44 0 71 -2 70 136 70
68 0 124 -1 124 -2z m1635 -55 c11 -97 14 -99 97 -57 42 21 53 23 63 12 16
-17 115 -188 115 -198 0 -4 -37 -18 -82 -30 -46 -12 -104 -28 -130 -35 l-48
-14 0 80 c0 83 -11 119 -34 119 -8 0 -46 -19 -86 -41 -39 -23 -73 -39 -76 -36
-4 4 -74 244 -74 255 0 1 56 2 124 2 l125 0 6 -57z m113 36 c1 -9 -8 -20 -23
-27 -24 -11 -25 -10 -25 19 0 26 3 30 22 27 13 -2 24 -10 26 -19z m-1383 -173
l80 -22 3 -115 3 -114 -50 -49 -50 -49 -66 18 c-72 19 -73 20 -146 152 l-34
62 70 71 c43 43 77 70 90 69 11 0 56 -11 100 -23z m837 -43 c38 -37 68 -72 68
-78 0 -5 -24 -50 -53 -100 l-53 -90 -67 -19 -67 -20 -51 50 -50 49 3 114 3
115 80 22 c44 12 89 23 100 23 11 1 47 -27 87 -66z m-1310 -85 c15 -11 16 -19
6 -56 -8 -33 -14 -42 -27 -37 -9 4 -28 9 -43 12 -27 5 -28 8 -28 69 l0 64 38
-19 c20 -11 45 -25 54 -33z m1688 -12 c0 -61 -1 -64 -27 -70 -16 -4 -35 -9
-44 -12 -12 -3 -19 4 -23 23 -4 15 -9 36 -12 45 -4 12 9 25 48 47 29 17 54 31
56 31 1 0 2 -29 2 -64z m-2302 13 c45 -12 82 -25 82 -28 0 -3 -10 -24 -23 -46
-19 -33 -84 -84 -108 -85 -5 0 -49 156 -49 175 0 8 10 7 98 -16z m1505 -67
l87 -87 0 -56 0 -56 -82 -22 c-46 -12 -90 -21 -98 -21 -8 0 -52 9 -97 21 l-83
22 0 56 0 56 87 87 c48 49 90 88 93 88 3 0 45 -39 93 -88z m1417 82 c0 -17
-45 -174 -50 -174 -3 0 -23 10 -45 23 -33 19 -84 84 -85 108 0 7 133 46 163
48 9 0 17 -2 17 -5z m-2382 -161 c32 -9 51 -19 48 -26 -2 -7 -12 -45 -22 -84
-10 -40 -20 -73 -23 -73 -3 0 -26 36 -51 80 -25 43 -50 81 -57 84 -7 3 -146
-31 -309 -74 -164 -44 -302 -80 -308 -80 -6 0 45 32 114 71 148 84 152 88 190
154 l30 52 167 -45 c93 -24 192 -51 221 -59z m2177 29 c26 -40 51 -59 165
-124 74 -43 130 -78 125 -78 -6 0 -144 36 -308 79 -164 44 -304 78 -310 75 -7
-3 -32 -41 -57 -84 -25 -44 -47 -80 -50 -80 -3 0 -15 37 -27 83 -15 58 -18 83
-9 87 6 2 103 30 216 60 171 47 207 54 215 42 6 -7 24 -35 40 -60z m-1916
-100 c92 -26 95 -28 124 -75 l30 -49 -65 -64 c-60 -61 -69 -66 -153 -89 -97
-27 -90 -29 -126 39 l-21 38 31 115 c17 63 31 116 31 119 0 7 34 -1 149 -34z
m1371 33 c0 -2 14 -56 31 -119 l31 -115 -28 -51 c-15 -28 -32 -49 -38 -47 -6
2 -46 12 -88 22 -73 17 -80 22 -144 86 l-67 67 27 47 c31 52 26 49 156 86 99
28 120 32 120 24z m-991 -128 c5 -5 30 -14 57 -21 l49 -13 -47 -13 c-26 -7
-52 -18 -57 -24 -6 -7 -12 -55 -13 -107 l-3 -94 -43 76 c-54 98 -60 103 -109
90 -57 -16 -60 -14 -25 22 36 37 39 57 16 93 -9 13 -15 26 -13 28 2 3 26 -1
52 -7 48 -11 48 -10 85 26 l37 38 3 -43 c2 -24 7 -47 11 -51z m598 30 c26 6
50 10 52 8 1 -2 -4 -14 -13 -27 -24 -34 -20 -58 17 -96 l32 -34 -40 7 c-22 4
-46 8 -54 9 -15 1 -32 -21 -88 -115 l-32 -54 -1 96 c0 104 -4 112 -55 125 -51
12 -51 17 0 33 l50 16 3 49 3 49 39 -38 c39 -38 40 -38 87 -28z m-1315 -47
l57 -100 -18 -65 c-10 -36 -20 -67 -22 -69 -2 -2 -32 -10 -67 -19 l-64 -15
-96 55 c-53 31 -98 56 -99 57 -1 1 10 47 25 101 l28 100 94 26 c52 15 97 28
100 28 3 0 31 -44 62 -99z m2073 67 l80 -23 27 -99 c15 -54 26 -100 25 -101
-1 -1 -45 -26 -98 -57 l-97 -55 -61 17 c-33 9 -65 21 -70 26 -5 6 -16 36 -24
68 l-15 58 56 99 c47 82 60 98 77 94 11 -3 56 -15 100 -27z m-2405 -51 c0 -3
-11 -46 -24 -96 -14 -50 -23 -97 -20 -103 3 -7 41 -32 84 -57 44 -25 80 -47
80 -50 0 -3 -43 -16 -96 -30 -139 -35 -134 -27 -102 -156 15 -60 25 -111 23
-113 -2 -2 -40 17 -83 43 -43 25 -83 46 -88 46 -5 0 -41 -32 -81 -72 -40 -40
-74 -70 -77 -67 -5 5 -86 303 -86 317 0 5 40 20 89 32 54 13 92 28 95 37 3 8
-5 53 -19 101 -14 47 -24 87 -22 88 5 5 293 82 310 83 9 0 17 -1 17 -3z m2732
-37 c84 -22 154 -42 155 -43 2 -1 -8 -41 -22 -88 -14 -48 -22 -93 -19 -101 3
-9 41 -24 95 -37 49 -12 89 -27 89 -32 0 -14 -81 -312 -86 -317 -3 -3 -37 27
-77 67 -40 40 -76 72 -81 72 -5 0 -45 -21 -88 -46 -43 -26 -81 -45 -83 -43 -2
3 8 49 23 104 14 55 23 108 20 117 -4 10 -44 26 -112 44 -58 16 -106 31 -106
34 0 3 36 25 80 50 43 25 81 50 84 57 3 6 -6 53 -20 103 -13 50 -24 93 -24 96
0 8 20 4 172 -37z m-1382 -49 c25 -6 60 -16 78 -21 l32 -11 0 -158 c0 -148 -1
-159 -19 -165 -12 -3 -48 -55 -88 -125 -37 -66 -70 -120 -73 -120 -3 0 -36 54
-73 119 -42 73 -76 121 -88 124 -18 5 -19 15 -19 166 l0 160 53 15 c107 30
122 34 137 31 8 -2 35 -9 60 -15z m-1725 -75 c10 -36 16 -68 12 -71 -11 -12
-120 -35 -127 -27 -4 4 -14 34 -23 66 -12 44 -13 59 -4 62 25 8 112 34 118 34
4 1 15 -28 24 -64z m3405 45 c25 -7 48 -14 51 -16 9 -5 -26 -129 -37 -129 -5
0 -35 6 -66 13 -66 15 -67 18 -41 99 12 39 21 52 32 49 9 -3 36 -10 61 -16z
m-2085 -124 l30 -55 -63 -64 c-59 -60 -68 -65 -153 -89 l-90 -25 -34 59 c-19
32 -35 62 -35 66 0 4 28 35 63 69 57 56 69 64 147 86 47 14 90 21 95 17 6 -5
23 -33 40 -64z m952 -38 c35 -34 63 -66 63 -69 0 -15 -65 -119 -75 -119 -5 0
-47 9 -92 21 -76 20 -85 26 -144 85 -70 70 -69 66 -15 153 l25 40 88 -24 c81
-22 91 -28 150 -87z m-1431 30 c16 -32 19 -32 100 -12 l29 7 -38 -42 -38 -42
46 -84 c46 -84 48 -97 10 -72 -11 8 -46 28 -77 46 l-57 32 -42 -38 -42 -38 7
29 c21 83 21 82 -24 107 l-42 24 53 15 c51 15 54 18 68 62 16 51 23 52 47 6z
m1700 -54 c5 -2 29 -8 54 -14 l45 -12 -44 -26 c-46 -27 -45 -25 -25 -108 l7
-29 -42 38 -42 38 -45 -25 c-24 -14 -65 -38 -91 -53 l-48 -28 16 25 c9 14 33
56 54 93 l38 69 -39 40 -39 41 29 -7 c83 -20 81 -20 106 21 l23 38 17 -49 c9
-28 21 -51 26 -52z m-1130 -131 c-3 -3 -26 -2 -52 2 l-47 7 49 49 49 50 3 -52
c2 -28 1 -54 -2 -56z m581 11 c-1 -1 -23 -5 -49 -8 l-48 -7 0 58 0 57 50 -49
c27 -27 49 -50 47 -51z m-1369 46 c66 -35 64 -28 37 -125 -23 -84 -28 -93 -88
-153 l-64 -64 -51 29 -50 28 -32 118 c-17 66 -29 121 -27 124 6 5 207 61 225
62 7 1 29 -8 50 -19z m2226 -10 c59 -16 111 -31 113 -34 3 -3 -9 -58 -27 -123
l-32 -118 -50 -28 -51 -29 -64 64 c-60 60 -65 69 -88 153 -14 49 -24 90 -22
91 9 9 94 54 102 54 6 0 59 -13 119 -30z m-2919 -303 l81 -302 102 -3 c56 -1
102 -6 102 -10 0 -4 -27 -34 -60 -67 l-60 -60 -161 161 -161 161 35 65 36 64
-4 153 c-2 84 -1 150 3 147 3 -4 43 -143 87 -309z m3537 163 l-4 -150 37 -66
37 -67 -161 -161 -161 -161 -60 60 c-33 33 -60 63 -60 67 0 4 46 9 102 10
l102 3 82 305 c46 168 83 306 83 308 5 16 5 -22 3 -148z m-2086 30 l34 0 0
-130 c0 -71 -2 -130 -4 -130 -11 0 -216 124 -216 130 0 4 14 38 31 75 l30 68
46 -7 c25 -3 61 -6 79 -6z m703 -56 c17 -36 31 -70 31 -74 0 -6 -175 -112
-212 -128 -5 -2 -8 55 -8 127 l0 130 48 4 c119 9 107 14 141 -59z m-1119 -22
c106 -61 134 -83 133 -98 -2 -10 28 -73 67 -139 l69 -120 -141 -3 c-82 -1
-147 -7 -155 -13 -13 -12 -10 -13 -200 97 l-91 54 24 87 c22 81 28 92 86 150
34 35 65 63 68 63 3 0 66 -35 140 -78z m1588 15 c59 -59 64 -68 86 -150 l23
-88 -91 -53 c-189 -110 -186 -109 -199 -97 -8 6 -73 12 -155 13 l-142 3 67
115 c37 63 67 126 67 139 1 21 22 37 136 103 74 43 137 78 140 78 3 0 34 -28
68 -63z m-1398 11 c-21 -46 -27 -47 -80 -15 l-34 21 54 17 c81 25 82 25 60
-23z m1075 20 c38 -9 39 -11 20 -25 -11 -8 -32 -21 -47 -29 -27 -14 -28 -13
-48 25 -30 60 -35 58 75 29z m-667 -133 c48 -83 75 -121 89 -123 17 -2 35 22
97 127 42 72 79 131 81 131 3 0 5 -60 5 -134 l0 -134 -64 -36 c-35 -20 -66
-42 -69 -49 -3 -8 8 -38 24 -66 l30 -52 67 3 67 3 5 80 5 79 70 41 c39 23 92
54 119 69 l50 29 -20 -34 c-110 -187 -136 -240 -124 -254 9 -11 45 -15 164
-17 l151 -3 -117 -68 -118 -68 -69 37 c-78 43 -81 43 -121 -30 l-25 -46 25
-46 c40 -73 43 -73 121 -30 l69 37 118 -68 117 -68 -157 -3 c-132 -2 -157 -5
-162 -18 -4 -10 19 -60 57 -128 35 -61 70 -122 76 -134 14 -27 28 -33 -154 73
l-70 41 -5 79 -5 80 -67 3 -67 3 -30 -52 c-16 -28 -27 -58 -24 -66 3 -7 34
-29 69 -49 l64 -36 0 -136 c0 -82 -4 -132 -9 -127 -5 6 -40 64 -79 130 -48 83
-75 121 -89 123 -17 2 -35 -22 -97 -127 -42 -72 -79 -131 -81 -131 -3 0 -5 60
-5 134 l0 134 64 36 c35 20 66 42 69 49 3 8 -8 38 -24 66 l-30 52 -67 -3 -67
-3 -5 -80 -5 -79 -70 -41 c-38 -23 -92 -55 -120 -71 l-50 -29 21 35 c110 188
136 241 124 255 -9 11 -45 15 -164 17 l-151 3 118 68 118 68 68 -38 c78 -42
81 -42 121 31 l25 46 -25 46 c-40 73 -43 73 -121 30 l-69 -37 -118 68 -117 68
157 3 c134 2 157 5 162 19 4 10 -20 62 -65 142 -40 69 -74 130 -77 135 -5 8
13 -1 163 -89 l70 -41 5 -79 5 -80 67 -3 67 -3 30 52 c16 28 27 58 24 66 -3 7
-34 29 -69 49 l-64 36 0 136 c0 82 4 132 9 127 5 -6 40 -64 79 -130z m-1788
38 c0 -43 -34 -133 -50 -133 -9 0 -134 129 -129 134 6 6 142 44 162 45 14 1
17 -8 17 -46z m3867 24 l83 -23 -70 -69 c-38 -38 -71 -67 -73 -64 -2 2 -13 21
-25 42 -25 43 -31 137 -9 137 6 0 49 -11 94 -23z m-3382 -50 l90 -53 18 -68
19 -69 -49 -49 -48 -49 -115 3 -114 3 -26 97 -25 98 70 70 c38 38 74 70 80 70
5 0 50 -24 100 -53z m2970 -17 l70 -70 -25 -98 -26 -97 -114 -3 -115 -3 -49
50 -48 49 12 54 c7 29 16 60 21 70 9 16 175 117 194 118 6 0 42 -32 80 -70z
m-2640 -102 c-8 -28 -12 -55 -9 -60 3 -4 42 -30 87 -56 l82 -47 -104 -5 -105
-5 -8 -35 c-16 -65 -20 -67 -37 -15 l-16 50 -49 3 -49 3 38 39 c38 39 38 39
26 86 -7 25 -10 49 -7 52 3 2 17 -3 30 -12 37 -24 58 -20 96 19 19 19 35 35
36 35 1 0 -4 -23 -11 -52z m2208 -18 c10 0 29 7 43 16 13 9 27 14 30 12 2 -3
-1 -26 -8 -52 l-12 -46 38 -39 39 -40 -49 -3 -49 -3 -16 -50 c-16 -51 -22 -51
-33 2 -4 17 -13 36 -20 42 -7 6 -55 12 -107 13 l-94 3 82 47 c45 26 84 52 87
56 3 5 -1 33 -9 62 l-14 53 37 -36 c21 -21 46 -37 55 -37z m-2880 -288 c-10
-7 -44 -27 -75 -45 -91 -50 -89 -64 19 -125 l76 -44 -99 -99 c-86 -86 -99 -96
-109 -81 -44 65 -118 206 -110 209 32 11 105 65 105 78 0 8 -25 33 -55 55 -31
23 -54 44 -52 48 2 4 30 53 62 110 l58 104 99 -99 c89 -89 97 -99 81 -111z
m3728 79 c29 -52 49 -96 44 -98 -32 -11 -105 -65 -105 -78 0 -8 25 -33 55 -55
31 -23 54 -44 52 -48 -2 -4 -30 -53 -62 -110 l-58 -104 -99 99 c-111 111 -111
98 -6 156 91 50 89 64 -19 125 l-76 44 99 99 c86 86 99 96 109 81 6 -9 36 -59
66 -111z m-2136 105 c11 -8 16 -19 12 -30 -10 -27 -42 -15 -45 17 -4 30 5 34
33 13z m323 -13 c-3 -32 -35 -44 -45 -17 -4 11 1 22 12 30 28 21 37 17 33 -13z
m-948 -114 c0 -12 -43 -79 -51 -79 -3 0 -12 26 -19 58 -7 31 -15 63 -17 69 -3
7 16 1 41 -13 25 -14 46 -30 46 -35z m1611 -9 c-9 -33 -19 -60 -22 -60 -8 0
-49 63 -49 73 0 6 69 46 81 47 3 0 -1 -27 -10 -60z m-2041 -56 l23 -86 -22
-94 -23 -94 -57 0 -56 0 -90 90 -90 90 90 90 90 90 56 0 56 0 23 -86z m308 -4
l22 -85 -22 -93 -22 -93 -75 3 -74 3 -23 85 -23 85 20 80 c11 44 22 86 24 93
3 9 25 12 77 10 l73 -3 23 -85z m1978 0 l23 -84 -23 -91 -22 -90 -75 0 -74 0
-23 85 -22 85 22 93 22 93 75 -3 74 -3 23 -85z m339 0 l90 -90 -90 -90 -90
-90 -56 0 -56 0 -23 86 -23 86 22 94 23 94 57 0 56 0 90 -90z m-1982 -46 c37
-21 67 -41 67 -44 0 -5 -58 -40 -177 -107 l-42 -24 -40 60 c-23 33 -41 64 -41
70 0 5 19 37 42 70 l42 61 40 -24 c23 -13 71 -41 109 -62z m1307 27 c22 -33
40 -65 40 -71 0 -6 -19 -38 -42 -70 l-42 -60 -40 24 c-23 13 -71 41 -108 62
-38 21 -68 41 -68 44 0 5 209 130 217 130 1 0 20 -27 43 -59z m-2881 2 c2 -1
-4 -14 -13 -27 -20 -32 -20 -60 -1 -90 15 -22 14 -24 -11 -41 -27 -17 -27 -17
-61 21 -58 67 -58 67 -7 123 46 51 47 51 68 34 11 -10 23 -19 25 -20z m4359
-24 l42 -51 -19 -27 c-11 -14 -32 -38 -48 -53 -28 -26 -28 -27 -52 -7 -22 18
-22 20 -7 44 20 30 20 64 0 90 -13 18 -12 21 8 37 13 10 26 18 29 18 3 0 24
-23 47 -51z m-3863 -19 l29 -30 -31 -32 -32 -31 -55 29 c-31 16 -56 31 -56 34
0 7 92 59 106 59 5 1 23 -13 39 -29z m3365 3 c27 -16 50 -30 50 -33 0 -3 -25
-18 -55 -35 l-55 -29 -32 32 -32 32 29 30 c16 16 32 30 37 30 4 0 30 -12 58
-27z m-3775 -19 c20 -15 20 -15 1 -30 -25 -18 -35 -18 -42 1 -7 17 2 45 13 45
4 0 17 -8 28 -16z m1759 1 c6 -17 -2 -45 -13 -45 -4 0 -16 7 -27 15 -19 15
-19 15 0 30 11 8 23 15 27 15 4 0 9 -7 13 -15z m612 0 c19 -15 19 -15 0 -30
-11 -8 -23 -15 -27 -15 -4 0 -9 7 -13 15 -6 17 2 45 13 45 4 0 16 -7 27 -15z
m1759 -15 c0 -29 -14 -34 -40 -14 -20 15 -20 15 0 30 25 19 40 13 40 -16z
m-3583 -107 c32 -32 58 -61 58 -65 0 -4 -46 -9 -102 -10 l-102 -3 -81 -302
c-44 -166 -83 -304 -85 -307 -3 -2 -3 63 -2 145 l4 149 -37 66 -37 66 158 159
c87 88 161 159 164 159 2 0 30 -26 62 -57z m3222 -102 l158 -159 -35 -63 -36
-64 4 -153 c2 -85 0 -151 -3 -147 -4 3 -43 142 -87 308 l-81 302 -102 3 c-56
1 -102 6 -102 10 0 8 112 122 120 122 3 0 77 -71 164 -159z m-884 72 c7 -32
15 -64 17 -70 3 -7 -16 -1 -41 13 -25 14 -46 30 -46 35 0 12 43 79 51 79 3 0
12 -26 19 -57z m-1631 13 c12 -18 21 -36 21 -39 0 -6 -73 -47 -83 -47 -2 0 3
27 12 60 9 33 19 60 22 60 4 0 17 -15 28 -34z m-335 -60 c4 -19 12 -39 19 -45
7 -5 56 -12 108 -13 l94 -3 -82 -47 c-45 -26 -84 -52 -87 -56 -3 -5 1 -33 9
-62 l14 -53 -37 36 c-42 41 -61 45 -98 21 -13 -9 -27 -14 -30 -12 -2 3 1 26 8
52 l12 46 -38 39 -39 40 49 3 c49 3 49 3 63 50 16 53 26 54 35 4z m2350 -54
l49 -3 -38 -39 c-38 -39 -38 -39 -26 -86 7 -25 10 -49 7 -52 -3 -2 -17 3 -30
12 -37 24 -56 20 -98 -21 l-37 -36 14 53 c8 29 12 57 9 62 -3 4 -42 30 -87 56
l-82 47 104 5 105 5 8 35 c16 65 20 67 37 15 l16 -50 49 -3z m-1938 8 c5 -5
73 -11 152 -12 l142 -3 -67 -115 c-37 -63 -67 -126 -67 -140 -1 -21 -21 -36
-139 -104 l-138 -80 -65 65 c-61 61 -65 69 -88 152 l-23 88 96 56 c53 31 114
67 136 79 46 27 47 28 61 14z m1493 -16 c25 -15 87 -51 137 -80 l91 -53 -23
-88 c-23 -83 -27 -91 -88 -152 l-64 -64 -139 79 c-109 63 -137 84 -136 100 2
10 -28 73 -67 139 l-69 120 142 3 c78 1 146 7 151 12 13 13 13 14 65 -16z
m-2095 -43 l48 -49 -12 -54 c-7 -29 -17 -61 -21 -70 -9 -16 -177 -118 -195
-118 -5 0 -41 32 -79 70 l-70 70 24 93 c13 50 25 95 28 100 2 4 55 7 116 7
l113 0 48 -49z m1183 33 c6 -16 -19 -44 -39 -44 -10 0 -11 44 -1 53 12 13 34
7 40 -9z m311 -17 c4 -30 -5 -34 -33 -13 -11 8 -16 19 -12 30 10 27 42 15 45
-17z m1442 -69 l25 -98 -73 -72 -73 -73 -62 34 c-132 73 -133 73 -151 147
l-17 67 48 49 48 49 115 -3 114 -3 26 -97z m-3522 -120 c24 -47 31 -138 10
-138 -15 0 -161 41 -167 46 -5 5 120 134 129 134 3 0 15 -19 28 -42z m1662
-88 l0 -130 -27 0 c-16 0 -51 -3 -79 -6 l-51 -6 -32 67 c-17 38 -30 72 -29 77
3 8 196 125 211 127 4 1 7 -57 7 -129z m594 69 c58 -34 106 -65 106 -69 0 -4
-14 -38 -31 -75 l-30 -68 -46 7 c-25 3 -61 6 -79 6 l-34 0 0 130 c0 72 2 130
4 130 2 0 52 -28 110 -61z m1648 -6 l68 -67 -83 -23 c-45 -12 -88 -23 -94 -23
-22 0 -16 90 9 138 13 23 25 42 28 42 2 0 35 -30 72 -67z m-3084 -36 c59 -59
64 -69 87 -152 28 -99 29 -96 -46 -130 -36 -17 -40 -16 -153 15 -64 18 -116
36 -116 41 0 5 14 59 31 121 l31 113 46 27 c26 15 49 27 52 27 3 1 34 -27 68
-62z m2281 36 l49 -28 32 -118 c17 -66 29 -121 27 -124 -3 -2 -55 -18 -117
-34 -109 -30 -114 -30 -149 -14 -75 34 -74 31 -46 130 23 83 28 93 87 152 34
35 64 63 65 63 2 0 25 -12 52 -27z m-1126 -122 c42 -73 76 -121 88 -124 18 -5
19 -15 19 -166 l0 -160 -52 -15 c-118 -33 -128 -34 -165 -25 -21 6 -62 17 -90
25 l-53 15 0 159 c0 148 1 159 19 165 12 3 48 55 88 125 37 66 70 120 73 120
3 0 36 -54 73 -119z m-1658 19 c38 -38 74 -70 79 -70 5 0 45 21 88 46 43 26
81 45 83 43 2 -3 -8 -49 -23 -104 -14 -55 -23 -108 -20 -116 4 -11 44 -27 112
-45 58 -16 106 -31 106 -34 0 -3 -36 -25 -80 -50 -43 -25 -81 -50 -84 -57 -3
-6 6 -53 20 -104 13 -50 22 -94 20 -97 -4 -4 -316 75 -323 82 -2 1 8 41 22 88
14 48 22 93 19 101 -3 9 -41 24 -95 37 -49 12 -89 27 -89 32 0 21 83 318 89
318 4 0 38 -31 76 -70z m3294 -84 c22 -85 41 -159 41 -164 0 -5 -40 -20 -89
-32 -54 -13 -92 -28 -95 -37 -3 -8 5 -53 19 -101 14 -47 24 -87 22 -88 -7 -7
-319 -86 -323 -82 -2 3 7 47 20 97 14 51 23 98 20 104 -3 7 -41 32 -84 57 -44
25 -80 47 -80 50 0 3 43 16 96 30 139 35 134 27 102 156 -15 60 -25 111 -23
113 2 2 40 -17 83 -43 43 -25 83 -46 88 -46 5 0 41 32 79 70 38 39 72 70 76
70 3 0 25 -69 48 -154z m-2209 53 c12 -23 19 -43 17 -46 -5 -4 -116 22 -124
30 -3 4 75 57 84 57 2 0 12 -18 23 -41z m1104 -7 c5 -8 -113 -47 -119 -40 -1
2 6 22 17 46 l19 42 39 -20 c21 -11 41 -24 44 -28z m-1276 -54 c-8 -13 -32
-54 -53 -91 l-38 -69 39 -40 39 -41 -29 7 c-83 20 -81 20 -106 -21 l-23 -38
-17 49 c-9 28 -21 51 -26 52 -5 2 -29 8 -54 14 l-45 12 44 26 c46 27 45 25 25
108 l-7 29 42 -38 c47 -42 39 -44 158 28 32 19 60 35 62 35 2 0 -3 -10 -11
-22z m1377 -1 c11 -8 46 -28 77 -46 l57 -32 42 38 42 38 -7 -29 c-21 -83 -21
-82 24 -107 l42 -24 -53 -15 c-50 -15 -53 -18 -69 -65 l-17 -50 -23 38 c-25
41 -24 41 -106 21 l-29 -7 38 42 38 42 -46 84 c-46 84 -48 97 -10 72z m-46
-102 l24 -46 -63 -64 c-58 -59 -68 -65 -149 -88 -47 -13 -90 -21 -96 -16 -5 4
-23 33 -40 64 l-29 55 62 63 c57 57 69 64 149 88 100 30 95 32 142 -56z
m-1172 54 c76 -20 85 -26 144 -85 70 -70 69 -66 15 -153 l-25 -40 -88 24 c-81
22 -91 28 -150 87 -35 34 -63 66 -63 69 0 15 65 119 75 119 6 0 47 -9 92 -21z
m273 -66 l0 -57 -50 49 -51 50 33 6 c69 13 68 14 68 -48z m558 49 c22 -7 20
-9 -28 -57 l-50 -49 0 57 c0 56 1 57 28 56 15 -1 37 -4 50 -7z m-1308 -163
c59 -16 66 -23 83 -92 l15 -58 -55 -97 c-31 -53 -56 -98 -57 -99 -1 -1 -47 10
-101 25 l-100 27 -27 100 c-15 55 -24 101 -20 103 4 2 48 27 97 57 50 29 97
52 105 50 8 -2 35 -9 60 -16z m2147 -35 c54 -31 99 -57 100 -58 1 -1 -10 -47
-25 -101 l-27 -100 -100 -27 c-54 -15 -100 -26 -101 -25 -1 1 -26 46 -57 99
l-56 98 18 65 c10 36 20 67 22 69 2 2 31 10 64 19 33 8 61 15 62 16 1 1 46
-24 100 -55z m-2844 15 c33 -8 47 -16 47 -28 0 -14 -28 -109 -34 -118 -2 -3
-119 28 -127 33 -6 3 7 62 27 122 2 7 12 11 21 8 10 -3 39 -10 66 -17z m1458
-175 c5 -6 31 -17 57 -24 l47 -13 -46 -12 c-66 -17 -69 -21 -69 -73 l0 -46
-40 39 c-39 38 -40 38 -87 28 -26 -6 -50 -10 -52 -8 -1 2 4 14 13 27 24 34 20
58 -16 95 -34 35 -28 40 31 23 44 -12 48 -8 103 87 l43 76 3 -94 c1 -51 7 -98
13 -105z m518 122 c53 -95 59 -100 108 -87 57 16 60 14 25 -22 -36 -37 -39
-57 -16 -93 9 -13 15 -26 13 -28 -2 -3 -26 1 -52 7 -47 10 -48 10 -87 -28
l-39 -38 -3 49 -3 49 -50 16 c-51 16 -51 21 0 33 51 13 55 21 55 122 0 52 2
94 4 94 3 0 23 -33 45 -74z m1502 6 c13 -47 15 -64 6 -67 -16 -5 -120 -35
-123 -35 -6 0 -36 131 -31 136 8 8 100 33 116 31 8 -1 22 -28 32 -65z m-2459
-17 c73 -17 80 -22 144 -86 l67 -68 -29 -48 -30 -48 -118 -33 c-65 -19 -119
-32 -121 -30 -2 2 -18 56 -36 120 l-31 117 28 51 c15 28 32 49 38 47 6 -2 46
-12 88 -22z m1462 -26 l28 -50 -31 -117 c-18 -64 -33 -118 -35 -119 -4 -4
-224 55 -237 62 -4 3 -19 26 -34 51 l-27 47 64 64 c60 59 70 66 149 88 46 13
87 24 90 24 3 1 18 -22 33 -50z m-1637 -221 c11 -46 20 -84 18 -86 -1 -1 -100
-29 -219 -61 l-216 -58 -30 52 c-38 66 -42 70 -190 154 -69 39 -120 71 -115
71 6 0 144 -36 308 -79 164 -44 304 -78 310 -75 7 3 32 41 57 84 25 44 47 80
50 80 3 0 15 -37 27 -82z m1763 2 c25 -43 50 -81 57 -84 7 -3 146 31 309 74
164 44 302 80 308 80 6 0 -45 -32 -114 -71 -148 -84 -152 -88 -190 -154 l-30
-52 -216 58 c-119 32 -218 60 -219 61 -5 5 39 168 45 168 3 0 25 -36 50 -80z
m-822 39 l82 -22 0 -56 0 -56 -90 -90 -90 -90 -90 90 -90 90 0 56 0 56 73 20
c95 27 108 27 205 2z m-385 -117 l48 -48 -3 -114 -3 -114 -97 -26 -98 -25 -70
70 c-38 38 -70 74 -70 80 0 5 24 50 53 100 52 87 55 90 108 107 30 9 61 17 69
17 9 1 37 -21 63 -47z m707 30 c54 -17 56 -20 107 -107 29 -50 53 -95 53 -100
0 -6 -32 -42 -70 -80 l-70 -70 -98 25 -97 26 -3 114 -3 114 48 48 c26 26 54
48 63 47 8 0 40 -8 70 -17z m-1835 -65 c33 -19 84 -84 85 -108 0 -8 -170 -53
-176 -46 -6 6 38 177 46 177 3 0 23 -10 45 -23z m845 16 c0 -5 -20 -42 -45
-83 -25 -41 -45 -80 -45 -85 0 -6 101 -111 225 -235 123 -123 223 -226 221
-227 -2 -2 -66 33 -142 77 -136 79 -140 80 -206 80 -48 0 -68 4 -68 13 0 7
-25 104 -55 216 -31 112 -55 204 -53 206 4 2 151 43 161 44 4 1 7 -2 7 -6z
m1238 -18 c40 -11 71 -24 70 -30 -2 -6 -28 -104 -58 -218 l-55 -207 -65 0
c-63 0 -69 -3 -204 -80 -76 -45 -140 -79 -142 -77 -2 1 98 104 221 227 124
124 225 229 225 235 0 5 -20 44 -45 85 -47 79 -53 95 -32 88 6 -3 45 -13 85
-23z m821 -61 c12 -48 20 -89 17 -91 -6 -7 -176 38 -176 46 0 3 10 24 23 46
19 33 84 84 108 85 4 0 16 -39 28 -86z m-2280 -16 c12 -48 9 -53 -61 -89 l-38
-19 0 64 0 64 38 10 c20 5 40 10 43 11 4 1 11 -18 18 -41z m1654 25 c26 -5 27
-8 27 -69 l0 -64 -37 19 c-71 36 -74 41 -61 89 8 33 14 42 27 37 9 -4 28 -9
44 -12z m-1810 -210 c13 -20 31 -16 107 28 39 23 73 39 76 36 4 -4 74 -244 74
-254 0 -2 -56 -3 -124 -3 l-125 0 -6 58 c-11 96 -14 98 -97 56 -42 -21 -53
-23 -63 -12 -16 17 -115 188 -115 198 0 4 37 18 83 30 45 12 102 27 127 34
l45 13 5 -86 c3 -47 9 -92 13 -98z m2085 137 c45 -12 82 -25 82 -28 0 -11
-111 -201 -120 -207 -5 -3 -29 5 -53 19 -74 44 -97 34 -97 -44 0 -71 2 -70
-136 -70 -68 0 -124 1 -124 3 0 10 70 250 74 254 3 3 37 -13 76 -36 40 -22 78
-41 86 -41 23 0 34 36 34 119 l0 80 48 -14 c26 -7 84 -23 130 -35z m-1228 -35
c41 -41 81 -75 90 -75 9 0 49 34 90 75 41 41 78 75 82 75 4 0 9 -46 10 -102
l3 -102 95 -25 c52 -13 97 -26 100 -28 2 -2 -50 -58 -115 -123 l-120 -120 -65
65 c-36 36 -72 65 -80 65 -8 0 -44 -29 -80 -65 l-65 -65 -120 120 c-65 65
-117 121 -115 123 3 2 48 15 100 28 l95 25 3 102 c1 56 6 102 10 102 4 0 41
-34 82 -75z m1148 -274 c-2 -9 -13 -17 -26 -19 -19 -3 -22 1 -22 27 0 29 1 30
25 19 15 -7 24 -18 23 -27z m-2068 4 c0 -18 -5 -25 -20 -25 -25 0 -38 29 -19
41 25 15 39 10 39 -16z m-95 -58 c16 -25 28 -33 57 -35 31 -3 36 -7 40 -33 5
-34 -6 -39 -87 -42 l-48 -2 -18 50 c-23 66 -23 74 4 85 31 12 30 13 52 -23z
m2285 -1 c0 -1 -11 -29 -24 -62 -27 -65 -31 -66 -118 -43 -33 8 -38 14 -38 39
0 27 3 29 42 32 35 2 46 9 63 34 19 30 21 31 48 18 15 -8 27 -16 27 -18z
m-1643 -58 c21 -12 40 -23 42 -25 3 -2 -26 -35 -65 -74 l-69 -70 -22 78 c-32
114 -32 113 26 113 33 0 63 -7 88 -22z m1062 5 c0 -10 -10 -53 -22 -96 l-22
-78 -70 72 c-39 39 -65 73 -60 75 6 2 24 13 40 23 41 27 135 29 134 4z m-546
-41 l47 -48 -50 -49 -50 -49 -50 49 -50 49 47 48 c26 26 50 48 53 48 3 0 27
-22 53 -48z"/>
</g>
</svg>
